<svg xmlns="http://www.w3.org/2000/svg" xmlns:xlink="http://www.w3.org/1999/xlink" width="1000" zoomAndPan="magnify" viewBox="0 0 750 749.999995" height="1000" preserveAspectRatio="xMidYMid meet" version="1.0"><defs><clipPath id="25a723a45b"><path d="M 16.875 0 L 733.125 0 L 733.125 750 L 16.875 750 Z M 16.875 0 " clip-rule="nonzero"/></clipPath></defs><g clip-path="url(#25a723a45b)"><path fill="#000000" d="M 603.746094 75.03125 L 568.929688 75.03125 L 568.929688 23.035156 C 568.929688 10.527344 558.753906 0.445312 546.339844 0.445312 C 533.828125 0.445312 523.75 10.621094 523.75 23.035156 L 523.75 75.125 L 213.277344 75.125 L 213.277344 23.035156 C 213.277344 10.527344 203.101562 0.445312 190.6875 0.445312 C 178.179688 0.445312 168.097656 10.621094 168.097656 23.035156 L 168.097656 75.125 L 146.160156 75.125 C 74.75 75.125 16.875 133 16.875 204.410156 L 16.875 620.269531 C 16.875 691.679688 74.75 749.554688 146.160156 749.554688 L 603.746094 749.554688 C 675.15625 749.554688 733.03125 691.679688 733.03125 620.269531 L 733.03125 204.410156 C 733.125 133 675.15625 75.03125 603.746094 75.03125 Z M 523.65625 98.925781 L 523.65625 145.878906 C 523.65625 158.390625 533.828125 168.46875 546.246094 168.46875 C 558.753906 168.46875 568.835938 158.296875 568.835938 145.878906 L 568.835938 100.699219 C 583.304688 109.101562 593.105469 124.785156 593.105469 142.707031 C 593.105469 169.496094 571.355469 191.246094 544.566406 191.246094 C 517.773438 191.246094 496.023438 169.496094 496.023438 142.707031 C 496.210938 123.382812 507.414062 106.769531 523.65625 98.925781 Z M 168.003906 99.765625 L 168.003906 145.878906 C 168.003906 158.390625 178.179688 168.46875 190.59375 168.46875 C 203.101562 168.46875 213.183594 158.296875 213.183594 145.878906 L 213.183594 99.765625 C 228.585938 107.886719 239.039062 124.039062 239.039062 142.613281 C 239.039062 169.402344 217.289062 191.152344 190.5 191.152344 C 163.710938 191.152344 141.960938 169.402344 141.960938 142.613281 C 142.144531 124.039062 152.695312 107.886719 168.003906 99.765625 Z M 687.851562 620.175781 C 687.851562 666.570312 650.140625 704.1875 603.839844 704.1875 L 146.160156 704.1875 C 99.765625 704.1875 62.148438 666.476562 62.148438 620.175781 L 62.148438 275.726562 L 687.851562 275.726562 Z M 687.851562 620.175781 " fill-opacity="1" fill-rule="nonzero"/></g><path fill="#000000" d="M 213.929688 406.132812 L 151.292969 406.132812 C 146.253906 406.132812 142.144531 402.023438 142.144531 396.984375 L 142.144531 334.347656 C 142.144531 329.308594 146.253906 325.199219 151.292969 325.199219 L 213.929688 325.199219 C 218.972656 325.199219 223.078125 329.308594 223.078125 334.347656 L 223.078125 396.984375 C 222.984375 402.023438 218.972656 406.132812 213.929688 406.132812 Z M 213.929688 406.132812 " fill-opacity="1" fill-rule="nonzero"/><path fill="#000000" d="M 213.929688 534.578125 L 151.292969 534.578125 C 146.253906 534.578125 142.144531 530.46875 142.144531 525.429688 L 142.144531 462.792969 C 142.144531 457.75 146.253906 453.644531 151.292969 453.644531 L 213.929688 453.644531 C 218.972656 453.644531 223.078125 457.753906 223.078125 462.792969 L 223.078125 525.429688 C 222.984375 530.5625 218.972656 534.578125 213.929688 534.578125 Z M 213.929688 534.578125 " fill-opacity="1" fill-rule="nonzero"/><path fill="#000000" d="M 213.929688 663.113281 L 151.292969 663.113281 C 146.253906 663.113281 142.144531 659.007812 142.144531 653.96875 L 142.144531 591.332031 C 142.144531 586.289062 146.253906 582.183594 151.292969 582.183594 L 213.929688 582.183594 C 218.972656 582.183594 223.078125 586.289062 223.078125 591.332031 L 223.078125 654.058594 C 222.984375 659.007812 218.972656 663.113281 213.929688 663.113281 Z M 213.929688 663.113281 " fill-opacity="1" fill-rule="nonzero"/><path fill="#000000" d="M 342.375 406.132812 L 279.738281 406.132812 C 274.699219 406.132812 270.589844 402.023438 270.589844 396.984375 L 270.589844 334.347656 C 270.589844 329.308594 274.699219 325.199219 279.738281 325.199219 L 342.375 325.199219 C 347.414062 325.199219 351.523438 329.308594 351.523438 334.347656 L 351.523438 396.984375 C 351.523438 402.023438 347.414062 406.132812 342.375 406.132812 Z M 342.375 406.132812 " fill-opacity="1" fill-rule="nonzero"/><path fill="#000000" d="M 342.375 534.578125 L 279.738281 534.578125 C 274.699219 534.578125 270.589844 530.46875 270.589844 525.429688 L 270.589844 462.792969 C 270.589844 457.75 274.699219 453.644531 279.738281 453.644531 L 342.375 453.644531 C 347.414062 453.644531 351.523438 457.753906 351.523438 462.792969 L 351.523438 525.429688 C 351.523438 530.5625 347.414062 534.578125 342.375 534.578125 Z M 342.375 534.578125 " fill-opacity="1" fill-rule="nonzero"/><path fill="#000000" d="M 342.375 663.113281 L 279.738281 663.113281 C 274.699219 663.113281 270.589844 659.007812 270.589844 653.96875 L 270.589844 591.332031 C 270.589844 586.289062 274.699219 582.183594 279.738281 582.183594 L 342.375 582.183594 C 347.414062 582.183594 351.523438 586.289062 351.523438 591.332031 L 351.523438 654.058594 C 351.523438 659.007812 347.414062 663.113281 342.375 663.113281 Z M 342.375 663.113281 " fill-opacity="1" fill-rule="nonzero"/><path fill="#000000" d="M 470.914062 406.132812 L 408.277344 406.132812 C 403.238281 406.132812 399.128906 402.023438 399.128906 396.984375 L 399.128906 334.347656 C 399.128906 329.308594 403.238281 325.199219 408.277344 325.199219 L 470.914062 325.199219 C 475.953125 325.199219 480.0625 329.308594 480.0625 334.347656 L 480.0625 396.984375 C 479.96875 402.023438 475.953125 406.132812 470.914062 406.132812 Z M 470.914062 406.132812 " fill-opacity="1" fill-rule="nonzero"/><path fill="#000000" d="M 470.914062 534.578125 L 408.277344 534.578125 C 403.238281 534.578125 399.128906 530.46875 399.128906 525.429688 L 399.128906 462.792969 C 399.128906 457.75 403.238281 453.644531 408.277344 453.644531 L 470.914062 453.644531 C 475.953125 453.644531 480.0625 457.753906 480.0625 462.792969 L 480.0625 525.429688 C 479.96875 530.5625 475.953125 534.578125 470.914062 534.578125 Z M 470.914062 534.578125 " fill-opacity="1" fill-rule="nonzero"/><path fill="#000000" d="M 470.914062 663.113281 L 408.277344 663.113281 C 403.238281 663.113281 399.128906 659.007812 399.128906 653.96875 L 399.128906 591.332031 C 399.128906 586.289062 403.238281 582.183594 408.277344 582.183594 L 470.914062 582.183594 C 475.953125 582.183594 480.0625 586.289062 480.0625 591.332031 L 480.0625 654.058594 C 479.96875 659.007812 475.953125 663.113281 470.914062 663.113281 Z M 470.914062 663.113281 " fill-opacity="1" fill-rule="nonzero"/><path fill="#000000" d="M 599.453125 406.132812 L 536.816406 406.132812 C 531.777344 406.132812 527.667969 402.023438 527.667969 396.984375 L 527.667969 334.347656 C 527.667969 329.308594 531.777344 325.199219 536.816406 325.199219 L 599.453125 325.199219 C 604.492188 325.199219 608.601562 329.308594 608.601562 334.347656 L 608.601562 396.984375 C 608.507812 402.023438 604.398438 406.132812 599.453125 406.132812 Z M 599.453125 406.132812 " fill-opacity="1" fill-rule="nonzero"/><path fill="#000000" d="M 599.453125 534.578125 L 536.816406 534.578125 C 531.777344 534.578125 527.667969 530.46875 527.667969 525.429688 L 527.667969 462.792969 C 527.667969 457.75 531.777344 453.644531 536.816406 453.644531 L 599.453125 453.644531 C 604.492188 453.644531 608.601562 457.753906 608.601562 462.792969 L 608.601562 525.429688 C 608.507812 530.5625 604.398438 534.578125 599.453125 534.578125 Z M 599.453125 534.578125 " fill-opacity="1" fill-rule="nonzero"/></svg>