<svg xmlns="http://www.w3.org/2000/svg" xmlns:xlink="http://www.w3.org/1999/xlink" width="1000" zoomAndPan="magnify" viewBox="0 0 750 749.999995" height="1000" preserveAspectRatio="xMidYMid meet" version="1.0"><path fill="#040606" d="M 524.375 459.242188 C 531.003906 463.03125 539.464844 460.757812 543.253906 454.128906 C 547.042969 447.496094 544.769531 439.097656 538.203125 435.308594 L 418.046875 365.898438 L 418.046875 213.375 C 418.046875 205.734375 411.859375 199.542969 404.222656 199.542969 C 396.582031 199.542969 390.394531 205.734375 390.394531 213.375 L 390.394531 381.875 L 524.375 459.242188 " fill-opacity="1" fill-rule="nonzero"/><path fill="#040606" d="M 250.476562 375.75 L 157.597656 375.75 C 157.597656 238.574219 268.785156 127.355469 405.925781 127.355469 C 543.066406 127.355469 654.253906 238.574219 654.253906 375.75 C 654.253906 512.925781 543.066406 624.144531 405.925781 624.144531 C 378.460938 624.144531 351.183594 619.597656 325.171875 610.628906 C 310.332031 605.515625 294.105469 613.410156 288.992188 628.3125 C 283.875 643.15625 291.832031 659.386719 306.671875 664.503906 C 466.097656 719.324219 639.796875 634.503906 694.601562 475.03125 C 749.40625 315.5625 664.671875 141.882812 505.246094 87 C 345.816406 32.179688 172.121094 116.996094 117.3125 276.46875 C 106.328125 308.425781 100.707031 341.960938 100.707031 375.75 L 7.828125 375.75 C 3.472656 375.75 0 379.222656 0 383.582031 C 0 385.539062 0.757812 387.433594 2.082031 388.886719 L 123.4375 519.875 C 126.34375 523.03125 131.332031 523.222656 134.488281 520.253906 C 134.613281 520.125 134.742188 520 134.867188 519.875 L 256.222656 388.886719 C 259.1875 385.730469 259 380.738281 255.84375 377.835938 C 254.390625 376.507812 252.496094 375.75 250.476562 375.75 " fill-opacity="1" fill-rule="nonzero"/></svg>