<svg xmlns="http://www.w3.org/2000/svg" xmlns:xlink="http://www.w3.org/1999/xlink" width="1000" zoomAndPan="magnify" viewBox="0 0 750 749.999995" height="1000" preserveAspectRatio="xMidYMid meet" version="1.0"><path fill="#ff914d" d="M 750.015625 375.007812 C 750.015625 167.898438 582.121094 0 375.007812 0 C 167.898438 0 0 167.898438 0 375.007812 C 0 582.121094 167.898438 750.015625 375.007812 750.015625 C 582.121094 750.015625 750.015625 582.121094 750.015625 375.007812 " fill-opacity="1" fill-rule="nonzero"/><path fill="#ffffff" d="M 375.007812 495.363281 C 351.386719 495.363281 331.765625 477.15625 330 453.597656 L 306.265625 136.597656 C 304.65625 115.113281 321.65625 96.789062 343.203125 96.789062 L 406.8125 96.789062 C 428.359375 96.789062 445.359375 115.113281 443.753906 136.597656 L 420.015625 453.597656 C 418.253906 477.15625 398.625 495.363281 375.007812 495.363281 " fill-opacity="1" fill-rule="nonzero"/><path fill="#ffffff" d="M 433.121094 595.117188 C 433.121094 563.023438 407.101562 537.003906 375.007812 537.003906 C 342.914062 537.003906 316.894531 563.023438 316.894531 595.117188 C 316.894531 627.210938 342.914062 653.230469 375.007812 653.230469 C 407.101562 653.230469 433.121094 627.210938 433.121094 595.117188 " fill-opacity="1" fill-rule="nonzero"/></svg>