<svg xmlns="http://www.w3.org/2000/svg" xmlns:xlink="http://www.w3.org/1999/xlink" width="1000" zoomAndPan="magnify" viewBox="0 0 750 749.999995" height="1000" preserveAspectRatio="xMidYMid meet" version="1.0"><path fill="#000000" d="M 321.265625 696.417969 L 321.265625 168.648438 L 53.542969 53.582031 L 53.542969 581.351562 Z M 189.175781 53.570312 L 342.398438 119.425781 C 362.0625 127.878906 374.808594 147.234375 374.808594 168.648438 L 374.808594 589.285156 L 455.125 589.285156 C 469.910156 589.285156 481.898438 577.292969 481.898438 562.5 L 481.898438 482.144531 L 535.441406 482.144531 L 535.441406 562.5 C 535.441406 606.878906 499.484375 642.855469 455.125 642.855469 L 374.808594 642.855469 L 374.808594 696.417969 C 374.808594 726.003906 350.835938 749.988281 321.265625 749.988281 C 314 749.988281 306.808594 748.511719 300.132812 745.640625 L 32.410156 630.574219 C 12.746094 622.121094 0 602.765625 0 581.351562 L 0 53.582031 C 0 23.996094 23.972656 0.0117188 53.542969 0.0117188 L 53.542969 0 L 455.125 0 C 499.484375 0 535.441406 35.976562 535.441406 80.355469 L 535.441406 160.714844 L 481.898438 160.714844 L 481.898438 80.355469 C 481.898438 65.5625 469.910156 53.570312 455.125 53.570312 Z M 647.503906 294.832031 L 586.121094 233.417969 L 623.980469 195.535156 L 750 321.617188 L 623.980469 447.703125 L 586.121094 409.820312 L 647.503906 348.40625 L 481.898438 348.40625 L 481.898438 294.832031 Z M 647.503906 294.832031 " fill-opacity="1" fill-rule="nonzero"/></svg>