<svg xmlns="http://www.w3.org/2000/svg" xmlns:xlink="http://www.w3.org/1999/xlink" width="1000" zoomAndPan="magnify" viewBox="0 0 750 749.999995" height="1000" preserveAspectRatio="xMidYMid meet" version="1.0"><path fill="#000000" d="M 610.070312 611.929688 C 607.761719 632.917969 585.925781 646.804688 552.71875 667.898438 C 495.089844 704.523438 437.527344 708.40625 412.964844 709.875 C 336.890625 714.390625 280.90625 690.988281 251.722656 678.394531 C 201.894531 656.878906 176.980469 646.140625 172.886719 625.921875 C 162.949219 576.808594 275.796875 487.359375 393.261719 485.996094 C 503.765625 484.703125 615.667969 560.855469 610.070312 611.929688 Z M 610.070312 611.929688 " fill-opacity="1" fill-rule="nonzero"/><path fill="#000000" d="M 703.007812 379.300781 C 702.0625 510.097656 619.585938 630.957031 495.542969 675.386719 C 371.5 719.8125 228.523438 680.875 143.949219 578.3125 C 60.632812 477.320312 50.660156 329.769531 117.707031 217.757812 C 185.34375 104.734375 321.003906 44.007812 450.402344 70.59375 C 596.421875 100.570312 701.921875 230.738281 702.972656 379.300781 C 703.148438 401.796875 738.136719 401.867188 737.964844 379.300781 C 736.914062 233.746094 645.761719 102.179688 509.191406 51.074219 C 372.441406 -0.0703125 212.042969 43.027344 119.175781 155.527344 C 25.851562 268.621094 11.890625 432.160156 87.472656 558.476562 C 162.703125 684.199219 311.347656 749.894531 455.058594 722.644531 C 618.292969 691.6875 736.773438 544.101562 737.964844 379.300781 C 738.136719 356.773438 703.148438 356.773438 702.972656 379.300781 Z M 703.007812 379.300781 " fill-opacity="1" fill-rule="nonzero"/><path fill="#000000" d="M 530.359375 295.523438 C 530.359375 297.898438 530.300781 300.277344 530.183594 302.652344 C 530.066406 305.027344 529.894531 307.394531 529.660156 309.761719 C 529.425781 312.128906 529.136719 314.488281 528.785156 316.839844 C 528.4375 319.191406 528.03125 321.53125 527.566406 323.863281 C 527.101562 326.195312 526.582031 328.515625 526.003906 330.820312 C 525.425781 333.128906 524.792969 335.417969 524.101562 337.695312 C 523.410156 339.96875 522.664062 342.226562 521.863281 344.464844 C 521.0625 346.703125 520.207031 348.921875 519.296875 351.117188 C 518.386719 353.3125 517.425781 355.488281 516.40625 357.636719 C 515.390625 359.785156 514.320312 361.910156 513.199219 364.003906 C 512.078125 366.101562 510.90625 368.171875 509.683594 370.210938 C 508.460938 372.25 507.191406 374.257812 505.867188 376.234375 C 504.546875 378.210938 503.179688 380.15625 501.761719 382.0625 C 500.34375 383.972656 498.882812 385.847656 497.375 387.683594 C 495.863281 389.523438 494.3125 391.324219 492.714844 393.085938 C 491.117188 394.847656 489.476562 396.566406 487.796875 398.25 C 486.113281 399.929688 484.394531 401.570312 482.628906 403.164062 C 480.867188 404.761719 479.066406 406.316406 477.230469 407.824219 C 475.390625 409.332031 473.515625 410.792969 471.605469 412.210938 C 469.695312 413.625 467.753906 414.996094 465.773438 416.316406 C 463.796875 417.636719 461.789062 418.910156 459.75 420.132812 C 457.710938 421.351562 455.640625 422.523438 453.542969 423.644531 C 451.445312 424.765625 449.320312 425.835938 447.171875 426.851562 C 445.023438 427.867188 442.847656 428.832031 440.652344 429.742188 C 438.453125 430.652344 436.234375 431.507812 433.996094 432.308594 C 431.757812 433.109375 429.5 433.855469 427.222656 434.542969 C 424.949219 435.234375 422.65625 435.867188 420.347656 436.445312 C 418.042969 437.023438 415.722656 437.542969 413.390625 438.007812 C 411.058594 438.472656 408.714844 438.878906 406.363281 439.226562 C 404.011719 439.578125 401.652344 439.867188 399.285156 440.101562 C 396.917969 440.332031 394.546875 440.507812 392.171875 440.625 C 389.792969 440.742188 387.417969 440.800781 385.039062 440.800781 C 382.660156 440.800781 380.285156 440.742188 377.910156 440.625 C 375.535156 440.507812 373.164062 440.332031 370.796875 440.101562 C 368.429688 439.867188 366.070312 439.578125 363.71875 439.226562 C 361.363281 438.878906 359.023438 438.472656 356.6875 438.007812 C 354.355469 437.542969 352.035156 437.023438 349.730469 436.445312 C 347.421875 435.867188 345.132812 435.234375 342.855469 434.542969 C 340.578125 433.855469 338.324219 433.109375 336.082031 432.308594 C 333.84375 431.507812 331.625 430.652344 329.429688 429.742188 C 327.230469 428.832031 325.058594 427.867188 322.90625 426.851562 C 320.757812 425.835938 318.632812 424.765625 316.535156 423.644531 C 314.4375 422.523438 312.371094 421.351562 310.332031 420.132812 C 308.289062 418.910156 306.28125 417.636719 304.304688 416.316406 C 302.328125 414.996094 300.382812 413.625 298.472656 412.210938 C 296.5625 410.792969 294.6875 409.332031 292.851562 407.824219 C 291.011719 406.316406 289.210938 404.761719 287.449219 403.164062 C 285.6875 401.570312 283.964844 399.929688 282.285156 398.25 C 280.601562 396.566406 278.960938 394.847656 277.363281 393.085938 C 275.769531 391.324219 274.214844 389.523438 272.707031 387.683594 C 271.199219 385.847656 269.734375 383.972656 268.316406 382.0625 C 266.902344 380.15625 265.53125 378.210938 264.210938 376.234375 C 262.890625 374.257812 261.617188 372.25 260.394531 370.210938 C 259.171875 368.171875 258 366.101562 256.878906 364.003906 C 255.757812 361.910156 254.6875 359.785156 253.671875 357.636719 C 252.65625 355.488281 251.691406 353.3125 250.78125 351.117188 C 249.871094 348.921875 249.015625 346.703125 248.214844 344.464844 C 247.414062 342.226562 246.667969 339.96875 245.976562 337.695312 C 245.289062 335.417969 244.652344 333.128906 244.074219 330.820312 C 243.496094 328.515625 242.976562 326.195312 242.511719 323.863281 C 242.046875 321.53125 241.640625 319.191406 241.292969 316.839844 C 240.945312 314.488281 240.652344 312.128906 240.421875 309.761719 C 240.1875 307.394531 240.011719 305.027344 239.894531 302.652344 C 239.777344 300.277344 239.71875 297.898438 239.71875 295.523438 C 239.71875 293.144531 239.777344 290.769531 239.894531 288.394531 C 240.011719 286.019531 240.1875 283.648438 240.421875 281.28125 C 240.652344 278.917969 240.945312 276.558594 241.292969 274.207031 C 241.640625 271.855469 242.046875 269.511719 242.511719 267.179688 C 242.976562 264.847656 243.496094 262.527344 244.074219 260.222656 C 244.652344 257.917969 245.289062 255.625 245.976562 253.351562 C 246.667969 251.074219 247.414062 248.820312 248.214844 246.578125 C 249.015625 244.339844 249.871094 242.125 250.78125 239.925781 C 251.691406 237.730469 252.65625 235.558594 253.671875 233.410156 C 254.6875 231.257812 255.757812 229.136719 256.878906 227.039062 C 258 224.941406 259.171875 222.875 260.394531 220.835938 C 261.617188 218.796875 262.890625 216.789062 264.210938 214.808594 C 265.53125 212.832031 266.902344 210.890625 268.316406 208.980469 C 269.734375 207.070312 271.199219 205.195312 272.707031 203.359375 C 274.214844 201.519531 275.769531 199.722656 277.363281 197.960938 C 278.960938 196.199219 280.601562 194.476562 282.285156 192.796875 C 283.964844 191.113281 285.6875 189.476562 287.449219 187.878906 C 289.210938 186.28125 291.011719 184.730469 292.851562 183.222656 C 294.6875 181.714844 296.5625 180.25 298.472656 178.835938 C 300.382812 177.417969 302.328125 176.050781 304.304688 174.730469 C 306.28125 173.40625 308.289062 172.136719 310.332031 170.914062 C 312.371094 169.691406 314.4375 168.519531 316.535156 167.398438 C 318.632812 166.277344 320.757812 165.210938 322.90625 164.191406 C 325.058594 163.175781 327.230469 162.214844 329.429688 161.304688 C 331.625 160.394531 333.84375 159.539062 336.082031 158.738281 C 338.324219 157.9375 340.578125 157.191406 342.855469 156.5 C 345.132812 155.808594 347.421875 155.175781 349.730469 154.597656 C 352.035156 154.019531 354.355469 153.5 356.6875 153.035156 C 359.023438 152.574219 361.363281 152.167969 363.71875 151.816406 C 366.070312 151.46875 368.429688 151.175781 370.796875 150.945312 C 373.164062 150.710938 375.535156 150.535156 377.910156 150.417969 C 380.285156 150.304688 382.660156 150.246094 385.039062 150.246094 C 387.417969 150.246094 389.792969 150.304688 392.171875 150.417969 C 394.546875 150.535156 396.917969 150.710938 399.285156 150.945312 C 401.652344 151.175781 404.011719 151.46875 406.363281 151.816406 C 408.714844 152.167969 411.058594 152.574219 413.390625 153.035156 C 415.722656 153.5 418.042969 154.019531 420.347656 154.597656 C 422.65625 155.175781 424.949219 155.808594 427.222656 156.5 C 429.5 157.191406 431.757812 157.9375 433.996094 158.738281 C 436.234375 159.539062 438.453125 160.394531 440.652344 161.304688 C 442.847656 162.214844 445.023438 163.175781 447.171875 164.191406 C 449.320312 165.210938 451.445312 166.277344 453.542969 167.398438 C 455.640625 168.519531 457.710938 169.691406 459.75 170.914062 C 461.789062 172.136719 463.796875 173.40625 465.773438 174.730469 C 467.753906 176.050781 469.695312 177.417969 471.605469 178.835938 C 473.515625 180.25 475.390625 181.714844 477.230469 183.222656 C 479.066406 184.730469 480.867188 186.28125 482.628906 187.878906 C 484.394531 189.476562 486.113281 191.113281 487.796875 192.796875 C 489.476562 194.476562 491.117188 196.199219 492.714844 197.960938 C 494.3125 199.722656 495.863281 201.519531 497.375 203.359375 C 498.882812 205.195312 500.34375 207.070312 501.761719 208.980469 C 503.179688 210.890625 504.546875 212.832031 505.867188 214.808594 C 507.191406 216.789062 508.460938 218.796875 509.683594 220.835938 C 510.90625 222.875 512.078125 224.941406 513.199219 227.039062 C 514.320312 229.136719 515.390625 231.257812 516.40625 233.410156 C 517.425781 235.558594 518.386719 237.730469 519.296875 239.925781 C 520.207031 242.125 521.0625 244.339844 521.863281 246.578125 C 522.664062 248.820312 523.410156 251.074219 524.101562 253.351562 C 524.792969 255.625 525.425781 257.917969 526.003906 260.222656 C 526.582031 262.527344 527.101562 264.847656 527.566406 267.179688 C 528.03125 269.511719 528.4375 271.855469 528.785156 274.207031 C 529.136719 276.558594 529.425781 278.917969 529.660156 281.28125 C 529.894531 283.648438 530.066406 286.019531 530.183594 288.394531 C 530.300781 290.769531 530.359375 293.144531 530.359375 295.523438 Z M 530.359375 295.523438 " fill-opacity="1" fill-rule="nonzero"/></svg>