<svg xmlns="http://www.w3.org/2000/svg" xmlns:xlink="http://www.w3.org/1999/xlink" width="1000" zoomAndPan="magnify" viewBox="0 0 750 749.999995" height="1000" preserveAspectRatio="xMidYMid meet" version="1.0"><path fill="#000000" d="M 200 475 L 583.800781 475 C 586.835938 475.011719 589.863281 474.894531 592.890625 474.648438 C 595.914062 474.402344 598.921875 474.03125 601.914062 473.53125 C 604.910156 473.03125 607.875 472.40625 610.816406 471.65625 C 613.757812 470.902344 616.660156 470.03125 619.527344 469.035156 C 622.394531 468.039062 625.214844 466.925781 627.984375 465.691406 C 630.757812 464.457031 633.472656 463.109375 636.132812 461.644531 C 638.789062 460.179688 641.382812 458.609375 643.910156 456.925781 C 646.433594 455.242188 648.882812 453.457031 651.257812 451.570312 C 653.632812 449.679688 655.925781 447.691406 658.132812 445.609375 C 660.339844 443.527344 662.453125 441.355469 664.476562 439.09375 C 666.5 436.832031 668.425781 434.488281 670.25 432.0625 C 672.074219 429.640625 673.796875 427.144531 675.410156 424.574219 C 677.023438 422.003906 678.527344 419.371094 679.917969 416.671875 C 681.3125 413.976562 682.585938 411.226562 683.746094 408.421875 C 684.90625 405.617188 685.945312 402.769531 686.863281 399.878906 C 687.78125 396.984375 688.578125 394.058594 689.25 391.101562 L 749.375 130.625 C 749.585938 129.710938 749.746094 128.789062 749.851562 127.855469 C 749.960938 126.925781 750.015625 125.992188 750.015625 125.054688 C 750.019531 124.117188 749.96875 123.179688 749.863281 122.25 C 749.761719 121.316406 749.605469 120.394531 749.398438 119.480469 C 749.191406 118.566406 748.933594 117.664062 748.625 116.78125 C 748.316406 115.894531 747.960938 115.027344 747.554688 114.183594 C 747.148438 113.339844 746.699219 112.519531 746.199219 111.722656 C 745.703125 110.929688 745.160156 110.164062 744.578125 109.429688 C 743.992188 108.699219 743.371094 108 742.707031 107.335938 C 742.042969 106.671875 741.347656 106.046875 740.613281 105.460938 C 739.882812 104.878906 739.117188 104.335938 738.324219 103.835938 C 737.53125 103.335938 736.710938 102.882812 735.867188 102.476562 C 735.023438 102.070312 734.15625 101.710938 733.273438 101.402344 C 732.386719 101.09375 731.488281 100.832031 730.574219 100.625 C 729.660156 100.417969 728.734375 100.261719 727.804688 100.15625 C 726.871094 100.050781 725.9375 100 725 100 L 143.324219 100 L 124.351562 19.273438 C 124.03125 17.914062 123.597656 16.585938 123.054688 15.296875 C 122.511719 14.007812 121.863281 12.773438 121.113281 11.589844 C 120.363281 10.410156 119.519531 9.300781 118.582031 8.261719 C 117.644531 7.21875 116.628906 6.265625 115.53125 5.398438 C 114.433594 4.53125 113.273438 3.757812 112.042969 3.085938 C 110.816406 2.410156 109.542969 1.84375 108.222656 1.386719 C 106.898438 0.925781 105.550781 0.582031 104.167969 0.347656 C 102.789062 0.113281 101.398438 0 100 0 L 25 0 C 24.179688 0 23.363281 0.0390625 22.550781 0.121094 C 21.734375 0.199219 20.925781 0.320312 20.121094 0.480469 C 19.320312 0.640625 18.527344 0.839844 17.742188 1.078125 C 16.960938 1.3125 16.1875 1.589844 15.433594 1.902344 C 14.675781 2.214844 13.9375 2.566406 13.214844 2.953125 C 12.492188 3.339844 11.792969 3.757812 11.109375 4.214844 C 10.429688 4.667969 9.773438 5.15625 9.140625 5.675781 C 8.507812 6.195312 7.902344 6.742188 7.324219 7.324219 C 6.742188 7.902344 6.195312 8.507812 5.675781 9.140625 C 5.15625 9.773438 4.667969 10.429688 4.214844 11.109375 C 3.757812 11.792969 3.339844 12.492188 2.953125 13.214844 C 2.566406 13.9375 2.214844 14.675781 1.902344 15.433594 C 1.589844 16.1875 1.3125 16.960938 1.078125 17.742188 C 0.839844 18.527344 0.640625 19.320312 0.480469 20.121094 C 0.320312 20.925781 0.199219 21.734375 0.121094 22.550781 C 0.0390625 23.363281 0 24.179688 0 25 C 0 25.820312 0.0390625 26.636719 0.121094 27.449219 C 0.199219 28.265625 0.320312 29.074219 0.480469 29.878906 C 0.640625 30.679688 0.839844 31.472656 1.078125 32.257812 C 1.3125 33.039062 1.589844 33.8125 1.902344 34.566406 C 2.214844 35.324219 2.566406 36.0625 2.953125 36.785156 C 3.339844 37.507812 3.757812 38.207031 4.214844 38.890625 C 4.667969 39.570312 5.15625 40.226562 5.675781 40.859375 C 6.195312 41.492188 6.742188 42.097656 7.324219 42.675781 C 7.902344 43.257812 8.507812 43.804688 9.140625 44.324219 C 9.773438 44.84375 10.429688 45.332031 11.109375 45.785156 C 11.792969 46.242188 12.492188 46.660156 13.214844 47.046875 C 13.9375 47.433594 14.675781 47.785156 15.433594 48.097656 C 16.1875 48.410156 16.960938 48.6875 17.742188 48.921875 C 18.527344 49.160156 19.320312 49.359375 20.121094 49.519531 C 20.925781 49.679688 21.734375 49.800781 22.550781 49.878906 C 23.363281 49.960938 24.179688 50 25 50 L 80.199219 50 L 170 431.398438 C 168.054688 432.261719 166.148438 433.199219 164.28125 434.222656 C 162.417969 435.246094 160.597656 436.34375 158.824219 437.519531 C 157.054688 438.699219 155.335938 439.949219 153.667969 441.269531 C 152.003906 442.59375 150.394531 443.984375 148.847656 445.445312 C 147.300781 446.90625 145.820312 448.425781 144.402344 450.011719 C 142.984375 451.597656 141.636719 453.242188 140.355469 454.941406 C 139.078125 456.644531 137.875 458.394531 136.746094 460.199219 C 135.617188 462 134.566406 463.847656 133.597656 465.742188 C 132.625 467.632812 131.734375 469.566406 130.925781 471.53125 C 130.121094 473.5 129.398438 475.5 128.761719 477.527344 C 128.121094 479.558594 127.574219 481.613281 127.109375 483.6875 C 126.648438 485.765625 126.273438 487.855469 125.988281 489.964844 C 125.703125 492.074219 125.507812 494.191406 125.40625 496.3125 C 125.300781 498.4375 125.285156 500.5625 125.363281 502.691406 C 125.4375 504.816406 125.605469 506.933594 125.863281 509.046875 C 126.117188 511.160156 126.464844 513.253906 126.898438 515.339844 C 127.335938 517.421875 127.855469 519.480469 128.46875 521.519531 C 129.078125 523.554688 129.773438 525.566406 130.554688 527.542969 C 131.335938 529.523438 132.199219 531.464844 133.144531 533.367188 C 134.09375 535.273438 135.117188 537.136719 136.222656 538.953125 C 137.328125 540.769531 138.507812 542.539062 139.761719 544.257812 C 141.019531 545.972656 142.34375 547.636719 143.742188 549.238281 C 145.136719 550.84375 146.601562 552.386719 148.128906 553.867188 C 149.65625 555.347656 151.242188 556.761719 152.890625 558.105469 C 154.539062 559.449219 156.242188 560.722656 158 561.921875 C 159.753906 563.125 161.558594 564.246094 163.410156 565.292969 C 165.261719 566.339844 167.15625 567.304688 169.089844 568.191406 C 171.023438 569.078125 172.992188 569.878906 174.996094 570.597656 C 176.996094 571.316406 179.027344 571.949219 181.082031 572.492188 C 183.140625 573.039062 185.214844 573.496094 187.308594 573.863281 C 189.40625 574.234375 191.511719 574.511719 193.628906 574.703125 C 195.75 574.890625 197.871094 574.992188 200 575 L 675 575 C 675.820312 575 676.636719 574.960938 677.449219 574.878906 C 678.265625 574.800781 679.074219 574.679688 679.878906 574.519531 C 680.679688 574.359375 681.472656 574.160156 682.257812 573.921875 C 683.039062 573.6875 683.808594 573.410156 684.566406 573.097656 C 685.324219 572.785156 686.0625 572.433594 686.785156 572.046875 C 687.507812 571.660156 688.207031 571.242188 688.890625 570.785156 C 689.570312 570.332031 690.226562 569.84375 690.859375 569.324219 C 691.492188 568.804688 692.097656 568.257812 692.675781 567.675781 C 693.257812 567.097656 693.804688 566.492188 694.324219 565.859375 C 694.84375 565.226562 695.332031 564.570312 695.785156 563.890625 C 696.242188 563.207031 696.660156 562.507812 697.046875 561.785156 C 697.433594 561.0625 697.785156 560.324219 698.097656 559.566406 C 698.410156 558.8125 698.6875 558.039062 698.921875 557.257812 C 699.160156 556.472656 699.359375 555.679688 699.519531 554.878906 C 699.679688 554.074219 699.800781 553.265625 699.878906 552.449219 C 699.960938 551.636719 700 550.820312 700 550 C 700 549.179688 699.960938 548.363281 699.878906 547.550781 C 699.800781 546.734375 699.679688 545.925781 699.519531 545.121094 C 699.359375 544.320312 699.160156 543.527344 698.921875 542.742188 C 698.6875 541.960938 698.410156 541.1875 698.097656 540.433594 C 697.785156 539.675781 697.433594 538.9375 697.046875 538.214844 C 696.660156 537.492188 696.242188 536.792969 695.785156 536.109375 C 695.332031 535.429688 694.84375 534.773438 694.324219 534.140625 C 693.804688 533.507812 693.257812 532.902344 692.675781 532.324219 C 692.097656 531.742188 691.492188 531.195312 690.859375 530.675781 C 690.226562 530.15625 689.570312 529.667969 688.890625 529.214844 C 688.207031 528.757812 687.507812 528.335938 686.785156 527.953125 C 686.0625 527.566406 685.324219 527.214844 684.566406 526.902344 C 683.808594 526.589844 683.039062 526.3125 682.257812 526.078125 C 681.472656 525.839844 680.679688 525.640625 679.878906 525.480469 C 679.074219 525.320312 678.265625 525.199219 677.449219 525.121094 C 676.636719 525.039062 675.820312 525 675 525 L 200 525 C 199.179688 525 198.363281 524.960938 197.550781 524.878906 C 196.734375 524.800781 195.925781 524.679688 195.121094 524.519531 C 194.320312 524.359375 193.527344 524.160156 192.742188 523.921875 C 191.960938 523.6875 191.1875 523.410156 190.433594 523.097656 C 189.675781 522.785156 188.9375 522.433594 188.214844 522.046875 C 187.492188 521.660156 186.792969 521.242188 186.109375 520.785156 C 185.429688 520.332031 184.773438 519.84375 184.140625 519.324219 C 183.507812 518.804688 182.902344 518.257812 182.324219 517.675781 C 181.742188 517.097656 181.195312 516.492188 180.675781 515.859375 C 180.15625 515.226562 179.667969 514.570312 179.214844 513.890625 C 178.757812 513.207031 178.339844 512.507812 177.953125 511.785156 C 177.566406 511.0625 177.214844 510.324219 176.902344 509.566406 C 176.589844 508.8125 176.3125 508.039062 176.078125 507.257812 C 175.839844 506.472656 175.640625 505.679688 175.480469 504.878906 C 175.320312 504.074219 175.199219 503.265625 175.121094 502.449219 C 175.039062 501.636719 175 500.820312 175 500 C 175 499.179688 175.039062 498.363281 175.121094 497.550781 C 175.199219 496.734375 175.320312 495.925781 175.480469 495.121094 C 175.640625 494.320312 175.839844 493.527344 176.078125 492.742188 C 176.3125 491.960938 176.589844 491.1875 176.902344 490.433594 C 177.214844 489.675781 177.566406 488.9375 177.953125 488.214844 C 178.339844 487.492188 178.757812 486.792969 179.214844 486.109375 C 179.667969 485.429688 180.15625 484.773438 180.675781 484.140625 C 181.195312 483.507812 181.742188 482.902344 182.324219 482.324219 C 182.902344 481.742188 183.507812 481.195312 184.140625 480.675781 C 184.773438 480.15625 185.429688 479.667969 186.109375 479.214844 C 186.792969 478.757812 187.492188 478.339844 188.214844 477.953125 C 188.9375 477.566406 189.675781 477.214844 190.433594 476.902344 C 191.1875 476.589844 191.960938 476.3125 192.742188 476.078125 C 193.527344 475.839844 194.320312 475.640625 195.121094 475.480469 C 195.925781 475.320312 196.734375 475.199219 197.550781 475.121094 C 198.363281 475.039062 199.179688 475 200 475 Z M 693.574219 150 L 640.523438 379.851562 C 640.164062 381.441406 639.738281 383.015625 639.246094 384.574219 C 638.75 386.128906 638.195312 387.664062 637.570312 389.171875 C 636.949219 390.683594 636.261719 392.164062 635.515625 393.613281 C 634.765625 395.066406 633.957031 396.484375 633.089844 397.867188 C 632.222656 399.25 631.296875 400.59375 630.316406 401.898438 C 629.332031 403.203125 628.296875 404.464844 627.210938 405.683594 C 626.121094 406.898438 624.984375 408.070312 623.796875 409.191406 C 622.609375 410.3125 621.378906 411.378906 620.097656 412.398438 C 618.820312 413.414062 617.503906 414.375 616.144531 415.28125 C 614.785156 416.1875 613.390625 417.03125 611.960938 417.820312 C 610.53125 418.605469 609.070312 419.332031 607.578125 419.996094 C 606.085938 420.660156 604.566406 421.261719 603.023438 421.796875 C 601.484375 422.332031 599.921875 422.800781 598.335938 423.203125 C 596.753906 423.609375 595.160156 423.945312 593.546875 424.210938 C 591.9375 424.480469 590.320312 424.679688 588.691406 424.8125 C 587.0625 424.945312 585.433594 425.007812 583.800781 425 L 219.800781 425 L 155 150 Z M 693.574219 150 " fill-opacity="1" fill-rule="nonzero"/><path fill="#000000" d="M 250 600 C 248.773438 600 247.546875 600.03125 246.320312 600.089844 C 245.09375 600.152344 243.871094 600.242188 242.648438 600.359375 C 241.425781 600.480469 240.210938 600.632812 238.996094 600.8125 C 237.78125 600.992188 236.570312 601.203125 235.367188 601.441406 C 234.164062 601.679688 232.96875 601.949219 231.777344 602.246094 C 230.585938 602.546875 229.402344 602.875 228.230469 603.230469 C 227.054688 603.585938 225.890625 603.96875 224.734375 604.382812 C 223.578125 604.796875 222.433594 605.238281 221.296875 605.707031 C 220.164062 606.179688 219.042969 606.675781 217.933594 607.199219 C 216.824219 607.726562 215.726562 608.277344 214.644531 608.855469 C 213.5625 609.433594 212.496094 610.039062 211.441406 610.671875 C 210.390625 611.300781 209.351562 611.957031 208.332031 612.640625 C 207.3125 613.320312 206.308594 614.027344 205.324219 614.757812 C 204.335938 615.492188 203.371094 616.246094 202.421875 617.023438 C 201.472656 617.804688 200.542969 618.605469 199.632812 619.429688 C 198.722656 620.253906 197.835938 621.097656 196.96875 621.96875 C 196.097656 622.835938 195.253906 623.722656 194.429688 624.632812 C 193.605469 625.542969 192.804688 626.472656 192.023438 627.421875 C 191.246094 628.371094 190.492188 629.335938 189.757812 630.324219 C 189.027344 631.308594 188.320312 632.3125 187.640625 633.332031 C 186.957031 634.351562 186.300781 635.390625 185.671875 636.441406 C 185.039062 637.496094 184.433594 638.5625 183.855469 639.644531 C 183.277344 640.726562 182.726562 641.824219 182.199219 642.933594 C 181.675781 644.042969 181.179688 645.164062 180.710938 646.296875 C 180.238281 647.433594 179.796875 648.578125 179.382812 649.734375 C 178.96875 650.890625 178.585938 652.054688 178.230469 653.230469 C 177.875 654.402344 177.546875 655.585938 177.246094 656.777344 C 176.949219 657.96875 176.679688 659.164062 176.441406 660.367188 C 176.203125 661.570312 175.992188 662.78125 175.8125 663.996094 C 175.632812 665.210938 175.480469 666.425781 175.359375 667.648438 C 175.242188 668.871094 175.152344 670.09375 175.089844 671.320312 C 175.03125 672.546875 175 673.773438 175 675 C 175 676.226562 175.03125 677.453125 175.089844 678.679688 C 175.152344 679.90625 175.242188 681.128906 175.359375 682.351562 C 175.480469 683.574219 175.632812 684.789062 175.8125 686.003906 C 175.992188 687.21875 176.203125 688.429688 176.441406 689.632812 C 176.679688 690.835938 176.949219 692.03125 177.246094 693.222656 C 177.546875 694.414062 177.875 695.597656 178.230469 696.769531 C 178.585938 697.945312 178.96875 699.109375 179.382812 700.265625 C 179.796875 701.421875 180.238281 702.566406 180.710938 703.699219 C 181.179688 704.835938 181.675781 705.957031 182.199219 707.066406 C 182.726562 708.175781 183.277344 709.273438 183.855469 710.355469 C 184.433594 711.4375 185.039062 712.503906 185.671875 713.558594 C 186.300781 714.609375 186.957031 715.648438 187.640625 716.667969 C 188.320312 717.6875 189.027344 718.691406 189.757812 719.675781 C 190.492188 720.664062 191.246094 721.628906 192.023438 722.578125 C 192.804688 723.527344 193.605469 724.457031 194.429688 725.367188 C 195.253906 726.277344 196.097656 727.164062 196.96875 728.03125 C 197.835938 728.902344 198.722656 729.746094 199.632812 730.570312 C 200.542969 731.394531 201.472656 732.195312 202.421875 732.976562 C 203.371094 733.753906 204.335938 734.507812 205.324219 735.242188 C 206.308594 735.972656 207.3125 736.679688 208.332031 737.359375 C 209.351562 738.042969 210.390625 738.699219 211.441406 739.328125 C 212.496094 739.960938 213.5625 740.566406 214.644531 741.144531 C 215.726562 741.722656 216.824219 742.273438 217.933594 742.800781 C 219.042969 743.324219 220.164062 743.820312 221.296875 744.289062 C 222.433594 744.761719 223.578125 745.203125 224.734375 745.617188 C 225.890625 746.027344 227.054688 746.414062 228.230469 746.769531 C 229.402344 747.125 230.585938 747.453125 231.777344 747.753906 C 232.96875 748.050781 234.164062 748.320312 235.367188 748.558594 C 236.570312 748.796875 237.78125 749.007812 238.996094 749.1875 C 240.210938 749.367188 241.425781 749.519531 242.648438 749.640625 C 243.871094 749.757812 245.09375 749.847656 246.320312 749.910156 C 247.546875 749.96875 248.773438 750 250 750 C 251.226562 750 252.453125 749.96875 253.679688 749.910156 C 254.90625 749.847656 256.128906 749.757812 257.351562 749.640625 C 258.574219 749.519531 259.789062 749.367188 261.003906 749.1875 C 262.21875 749.007812 263.429688 748.796875 264.632812 748.558594 C 265.835938 748.320312 267.03125 748.050781 268.222656 747.753906 C 269.414062 747.453125 270.597656 747.125 271.769531 746.769531 C 272.945312 746.414062 274.109375 746.027344 275.265625 745.617188 C 276.421875 745.203125 277.566406 744.761719 278.703125 744.289062 C 279.835938 743.820312 280.957031 743.324219 282.066406 742.800781 C 283.175781 742.273438 284.273438 741.722656 285.355469 741.144531 C 286.4375 740.566406 287.503906 739.960938 288.558594 739.328125 C 289.609375 738.699219 290.648438 738.042969 291.667969 737.359375 C 292.6875 736.679688 293.691406 735.972656 294.675781 735.242188 C 295.664062 734.507812 296.628906 733.753906 297.578125 732.976562 C 298.527344 732.195312 299.457031 731.394531 300.367188 730.570312 C 301.277344 729.746094 302.164062 728.902344 303.03125 728.03125 C 303.902344 727.164062 304.746094 726.277344 305.570312 725.367188 C 306.394531 724.457031 307.195312 723.527344 307.976562 722.578125 C 308.753906 721.628906 309.507812 720.664062 310.242188 719.675781 C 310.972656 718.691406 311.679688 717.6875 312.359375 716.667969 C 313.042969 715.648438 313.699219 714.609375 314.328125 713.558594 C 314.960938 712.503906 315.566406 711.4375 316.144531 710.355469 C 316.722656 709.273438 317.273438 708.175781 317.800781 707.066406 C 318.324219 705.957031 318.820312 704.835938 319.289062 703.699219 C 319.761719 702.566406 320.203125 701.421875 320.617188 700.265625 C 321.027344 699.109375 321.414062 697.945312 321.769531 696.769531 C 322.125 695.597656 322.453125 694.414062 322.753906 693.222656 C 323.050781 692.03125 323.320312 690.835938 323.558594 689.632812 C 323.796875 688.429688 324.007812 687.21875 324.1875 686.003906 C 324.367188 684.789062 324.519531 683.574219 324.640625 682.351562 C 324.757812 681.128906 324.847656 679.90625 324.910156 678.679688 C 324.96875 677.453125 325 676.226562 325 675 C 325 673.773438 324.96875 672.546875 324.910156 671.320312 C 324.847656 670.09375 324.757812 668.871094 324.640625 667.648438 C 324.519531 666.425781 324.367188 665.210938 324.1875 663.996094 C 324.007812 662.78125 323.796875 661.570312 323.558594 660.367188 C 323.320312 659.164062 323.050781 657.96875 322.753906 656.777344 C 322.453125 655.585938 322.125 654.402344 321.769531 653.230469 C 321.414062 652.054688 321.027344 650.890625 320.617188 649.734375 C 320.203125 648.578125 319.761719 647.433594 319.289062 646.296875 C 318.820312 645.164062 318.324219 644.042969 317.800781 642.933594 C 317.273438 641.824219 316.722656 640.726562 316.144531 639.644531 C 315.566406 638.5625 314.960938 637.496094 314.328125 636.441406 C 313.699219 635.390625 313.042969 634.351562 312.359375 633.332031 C 311.679688 632.3125 310.972656 631.308594 310.242188 630.324219 C 309.507812 629.335938 308.753906 628.371094 307.976562 627.421875 C 307.195312 626.472656 306.394531 625.542969 305.570312 624.632812 C 304.746094 623.722656 303.902344 622.835938 303.03125 621.96875 C 302.164062 621.097656 301.277344 620.253906 300.367188 619.429688 C 299.457031 618.605469 298.527344 617.804688 297.578125 617.023438 C 296.628906 616.246094 295.664062 615.492188 294.675781 614.757812 C 293.691406 614.027344 292.6875 613.320312 291.667969 612.640625 C 290.648438 611.957031 289.609375 611.300781 288.558594 610.671875 C 287.503906 610.039062 286.4375 609.433594 285.355469 608.855469 C 284.273438 608.277344 283.175781 607.726562 282.066406 607.199219 C 280.957031 606.675781 279.835938 606.179688 278.703125 605.710938 C 277.566406 605.238281 276.421875 604.796875 275.265625 604.382812 C 274.109375 603.96875 272.945312 603.585938 271.769531 603.230469 C 270.597656 602.875 269.414062 602.546875 268.222656 602.246094 C 267.03125 601.949219 265.835938 601.679688 264.632812 601.441406 C 263.429688 601.203125 262.21875 600.992188 261.003906 600.8125 C 259.789062 600.632812 258.574219 600.480469 257.351562 600.359375 C 256.128906 600.242188 254.90625 600.152344 253.679688 600.089844 C 252.453125 600.03125 251.226562 600 250 600 Z M 250 700 C 249.179688 700 248.363281 699.960938 247.550781 699.878906 C 246.734375 699.800781 245.925781 699.679688 245.121094 699.519531 C 244.320312 699.359375 243.527344 699.160156 242.742188 698.921875 C 241.960938 698.6875 241.1875 698.410156 240.433594 698.097656 C 239.675781 697.785156 238.9375 697.433594 238.214844 697.046875 C 237.492188 696.660156 236.792969 696.242188 236.109375 695.785156 C 235.429688 695.332031 234.773438 694.84375 234.140625 694.324219 C 233.507812 693.804688 232.902344 693.257812 232.324219 692.675781 C 231.742188 692.097656 231.195312 691.492188 230.675781 690.859375 C 230.15625 690.226562 229.667969 689.570312 229.214844 688.890625 C 228.757812 688.207031 228.339844 687.507812 227.953125 686.785156 C 227.566406 686.0625 227.214844 685.324219 226.902344 684.566406 C 226.589844 683.808594 226.3125 683.039062 226.078125 682.257812 C 225.839844 681.472656 225.640625 680.679688 225.480469 679.878906 C 225.320312 679.074219 225.199219 678.265625 225.121094 677.449219 C 225.039062 676.636719 225 675.820312 225 675 C 225 674.179688 225.039062 673.363281 225.121094 672.550781 C 225.199219 671.734375 225.320312 670.925781 225.480469 670.121094 C 225.640625 669.320312 225.839844 668.527344 226.078125 667.742188 C 226.3125 666.960938 226.589844 666.1875 226.902344 665.433594 C 227.214844 664.675781 227.566406 663.9375 227.953125 663.214844 C 228.339844 662.492188 228.757812 661.792969 229.214844 661.109375 C 229.667969 660.429688 230.15625 659.773438 230.675781 659.140625 C 231.195312 658.507812 231.742188 657.902344 232.324219 657.320312 C 232.902344 656.742188 233.507812 656.195312 234.140625 655.675781 C 234.773438 655.15625 235.429688 654.667969 236.109375 654.214844 C 236.792969 653.757812 237.492188 653.339844 238.214844 652.953125 C 238.9375 652.566406 239.675781 652.214844 240.433594 651.902344 C 241.1875 651.589844 241.960938 651.3125 242.742188 651.078125 C 243.527344 650.839844 244.320312 650.640625 245.121094 650.480469 C 245.925781 650.320312 246.734375 650.199219 247.550781 650.121094 C 248.363281 650.039062 249.179688 650 250 650 C 250.820312 650 251.636719 650.039062 252.449219 650.121094 C 253.265625 650.199219 254.074219 650.320312 254.878906 650.480469 C 255.679688 650.640625 256.472656 650.839844 257.257812 651.078125 C 258.039062 651.3125 258.8125 651.589844 259.566406 651.902344 C 260.324219 652.214844 261.0625 652.566406 261.785156 652.953125 C 262.507812 653.339844 263.207031 653.757812 263.890625 654.214844 C 264.570312 654.667969 265.226562 655.15625 265.859375 655.675781 C 266.492188 656.195312 267.097656 656.742188 267.675781 657.320312 C 268.257812 657.902344 268.804688 658.507812 269.324219 659.140625 C 269.84375 659.773438 270.332031 660.429688 270.785156 661.109375 C 271.242188 661.792969 271.660156 662.492188 272.046875 663.214844 C 272.433594 663.9375 272.785156 664.675781 273.097656 665.433594 C 273.410156 666.1875 273.6875 666.960938 273.921875 667.742188 C 274.160156 668.527344 274.359375 669.320312 274.519531 670.121094 C 274.679688 670.925781 274.800781 671.734375 274.878906 672.550781 C 274.960938 673.363281 275 674.179688 275 675 C 275 675.820312 274.960938 676.636719 274.878906 677.449219 C 274.800781 678.265625 274.679688 679.074219 274.519531 679.878906 C 274.359375 680.679688 274.160156 681.472656 273.921875 682.257812 C 273.6875 683.039062 273.410156 683.808594 273.097656 684.566406 C 272.785156 685.324219 272.433594 686.0625 272.046875 686.785156 C 271.660156 687.507812 271.242188 688.207031 270.785156 688.890625 C 270.332031 689.570312 269.84375 690.226562 269.324219 690.859375 C 268.804688 691.492188 268.257812 692.097656 267.675781 692.675781 C 267.097656 693.257812 266.492188 693.804688 265.859375 694.324219 C 265.226562 694.84375 264.570312 695.332031 263.890625 695.785156 C 263.207031 696.242188 262.507812 696.660156 261.785156 697.046875 C 261.0625 697.433594 260.324219 697.785156 259.566406 698.097656 C 258.8125 698.410156 258.039062 698.6875 257.257812 698.921875 C 256.472656 699.160156 255.679688 699.359375 254.878906 699.519531 C 254.074219 699.679688 253.265625 699.800781 252.449219 699.878906 C 251.636719 699.960938 250.820312 700 250 700 Z M 250 700 " fill-opacity="1" fill-rule="nonzero"/><path fill="#000000" d="M 550 600 C 548.773438 600 547.546875 600.03125 546.320312 600.089844 C 545.09375 600.152344 543.871094 600.242188 542.648438 600.359375 C 541.425781 600.480469 540.210938 600.632812 538.996094 600.8125 C 537.78125 600.992188 536.570312 601.203125 535.367188 601.441406 C 534.164062 601.679688 532.96875 601.949219 531.777344 602.246094 C 530.585938 602.546875 529.402344 602.875 528.230469 603.230469 C 527.054688 603.585938 525.890625 603.96875 524.734375 604.382812 C 523.578125 604.796875 522.433594 605.238281 521.296875 605.707031 C 520.164062 606.179688 519.042969 606.675781 517.933594 607.199219 C 516.824219 607.726562 515.726562 608.277344 514.644531 608.855469 C 513.5625 609.433594 512.496094 610.039062 511.441406 610.671875 C 510.390625 611.300781 509.351562 611.957031 508.332031 612.640625 C 507.3125 613.320312 506.308594 614.027344 505.324219 614.757812 C 504.335938 615.492188 503.371094 616.246094 502.421875 617.023438 C 501.472656 617.804688 500.542969 618.605469 499.632812 619.429688 C 498.722656 620.253906 497.835938 621.097656 496.96875 621.96875 C 496.097656 622.835938 495.253906 623.722656 494.429688 624.632812 C 493.605469 625.542969 492.804688 626.472656 492.023438 627.421875 C 491.246094 628.371094 490.492188 629.335938 489.757812 630.324219 C 489.027344 631.308594 488.320312 632.3125 487.640625 633.332031 C 486.957031 634.351562 486.300781 635.390625 485.671875 636.441406 C 485.039062 637.496094 484.433594 638.5625 483.855469 639.644531 C 483.277344 640.726562 482.726562 641.824219 482.199219 642.933594 C 481.675781 644.042969 481.179688 645.164062 480.707031 646.296875 C 480.238281 647.433594 479.796875 648.578125 479.382812 649.734375 C 478.96875 650.890625 478.585938 652.054688 478.230469 653.230469 C 477.871094 654.402344 477.546875 655.585938 477.246094 656.777344 C 476.949219 657.96875 476.679688 659.164062 476.441406 660.367188 C 476.203125 661.570312 475.992188 662.78125 475.8125 663.996094 C 475.632812 665.210938 475.480469 666.425781 475.359375 667.648438 C 475.242188 668.871094 475.152344 670.09375 475.089844 671.320312 C 475.03125 672.546875 475 673.773438 475 675 C 475 676.226562 475.03125 677.453125 475.089844 678.679688 C 475.152344 679.90625 475.242188 681.128906 475.359375 682.351562 C 475.480469 683.574219 475.632812 684.789062 475.8125 686.003906 C 475.992188 687.21875 476.203125 688.429688 476.441406 689.632812 C 476.679688 690.835938 476.949219 692.03125 477.246094 693.222656 C 477.546875 694.414062 477.871094 695.597656 478.230469 696.769531 C 478.585938 697.945312 478.96875 699.109375 479.382812 700.265625 C 479.796875 701.421875 480.238281 702.566406 480.707031 703.699219 C 481.179688 704.835938 481.675781 705.957031 482.199219 707.066406 C 482.726562 708.175781 483.277344 709.273438 483.855469 710.355469 C 484.433594 711.4375 485.039062 712.503906 485.671875 713.558594 C 486.300781 714.609375 486.957031 715.648438 487.640625 716.667969 C 488.320312 717.6875 489.027344 718.691406 489.757812 719.675781 C 490.492188 720.664062 491.246094 721.628906 492.023438 722.578125 C 492.804688 723.527344 493.605469 724.457031 494.429688 725.367188 C 495.253906 726.277344 496.097656 727.164062 496.96875 728.03125 C 497.835938 728.902344 498.722656 729.746094 499.632812 730.570312 C 500.542969 731.394531 501.472656 732.195312 502.421875 732.976562 C 503.371094 733.753906 504.335938 734.507812 505.324219 735.242188 C 506.308594 735.972656 507.3125 736.679688 508.332031 737.359375 C 509.351562 738.042969 510.390625 738.699219 511.441406 739.328125 C 512.496094 739.960938 513.5625 740.566406 514.644531 741.144531 C 515.726562 741.722656 516.824219 742.273438 517.933594 742.800781 C 519.042969 743.324219 520.164062 743.820312 521.296875 744.289062 C 522.433594 744.761719 523.578125 745.203125 524.734375 745.617188 C 525.890625 746.027344 527.054688 746.414062 528.230469 746.769531 C 529.402344 747.125 530.585938 747.453125 531.777344 747.753906 C 532.96875 748.050781 534.164062 748.320312 535.367188 748.558594 C 536.570312 748.796875 537.78125 749.007812 538.996094 749.1875 C 540.210938 749.367188 541.425781 749.519531 542.648438 749.640625 C 543.871094 749.757812 545.09375 749.847656 546.320312 749.910156 C 547.546875 749.96875 548.773438 750 550 750 C 551.226562 750 552.453125 749.96875 553.679688 749.910156 C 554.90625 749.847656 556.128906 749.757812 557.351562 749.640625 C 558.574219 749.519531 559.789062 749.367188 561.003906 749.1875 C 562.21875 749.007812 563.429688 748.796875 564.632812 748.558594 C 565.835938 748.320312 567.03125 748.050781 568.222656 747.753906 C 569.414062 747.453125 570.597656 747.125 571.769531 746.769531 C 572.945312 746.414062 574.109375 746.027344 575.265625 745.617188 C 576.421875 745.203125 577.566406 744.761719 578.699219 744.289062 C 579.835938 743.820312 580.957031 743.324219 582.066406 742.800781 C 583.175781 742.273438 584.273438 741.722656 585.355469 741.144531 C 586.4375 740.566406 587.503906 739.960938 588.558594 739.328125 C 589.609375 738.699219 590.648438 738.042969 591.667969 737.359375 C 592.6875 736.679688 593.691406 735.972656 594.675781 735.242188 C 595.664062 734.507812 596.628906 733.753906 597.578125 732.976562 C 598.527344 732.195312 599.457031 731.394531 600.367188 730.570312 C 601.277344 729.746094 602.164062 728.902344 603.03125 728.03125 C 603.902344 727.164062 604.746094 726.277344 605.570312 725.367188 C 606.394531 724.457031 607.195312 723.527344 607.976562 722.578125 C 608.753906 721.628906 609.507812 720.664062 610.242188 719.675781 C 610.972656 718.691406 611.679688 717.6875 612.359375 716.667969 C 613.042969 715.648438 613.699219 714.609375 614.328125 713.558594 C 614.960938 712.503906 615.566406 711.4375 616.144531 710.355469 C 616.722656 709.273438 617.273438 708.175781 617.800781 707.066406 C 618.324219 705.957031 618.820312 704.835938 619.289062 703.699219 C 619.761719 702.566406 620.203125 701.421875 620.617188 700.265625 C 621.027344 699.109375 621.414062 697.945312 621.769531 696.769531 C 622.125 695.597656 622.453125 694.414062 622.753906 693.222656 C 623.050781 692.03125 623.320312 690.835938 623.558594 689.632812 C 623.796875 688.429688 624.007812 687.21875 624.1875 686.003906 C 624.367188 684.789062 624.519531 683.574219 624.640625 682.351562 C 624.757812 681.128906 624.847656 679.90625 624.910156 678.679688 C 624.96875 677.453125 625 676.226562 625 675 C 625 673.773438 624.96875 672.546875 624.910156 671.320312 C 624.847656 670.09375 624.757812 668.871094 624.640625 667.648438 C 624.519531 666.425781 624.367188 665.210938 624.1875 663.996094 C 624.007812 662.78125 623.796875 661.570312 623.558594 660.367188 C 623.320312 659.164062 623.050781 657.96875 622.753906 656.777344 C 622.453125 655.585938 622.125 654.402344 621.769531 653.230469 C 621.414062 652.054688 621.027344 650.890625 620.617188 649.734375 C 620.203125 648.578125 619.761719 647.433594 619.289062 646.296875 C 618.820312 645.164062 618.324219 644.042969 617.800781 642.933594 C 617.273438 641.824219 616.722656 640.726562 616.144531 639.644531 C 615.566406 638.5625 614.960938 637.496094 614.328125 636.441406 C 613.699219 635.390625 613.042969 634.351562 612.359375 633.332031 C 611.679688 632.3125 610.972656 631.308594 610.242188 630.324219 C 609.507812 629.335938 608.753906 628.371094 607.976562 627.421875 C 607.195312 626.472656 606.394531 625.542969 605.570312 624.632812 C 604.746094 623.722656 603.902344 622.835938 603.03125 621.96875 C 602.164062 621.097656 601.277344 620.253906 600.367188 619.429688 C 599.457031 618.605469 598.527344 617.804688 597.578125 617.023438 C 596.628906 616.246094 595.664062 615.492188 594.675781 614.757812 C 593.691406 614.027344 592.6875 613.320312 591.667969 612.640625 C 590.648438 611.957031 589.609375 611.300781 588.558594 610.671875 C 587.503906 610.039062 586.4375 609.433594 585.355469 608.855469 C 584.273438 608.277344 583.175781 607.726562 582.066406 607.199219 C 580.957031 606.675781 579.835938 606.179688 578.699219 605.707031 C 577.566406 605.238281 576.421875 604.796875 575.265625 604.382812 C 574.109375 603.96875 572.945312 603.585938 571.769531 603.230469 C 570.597656 602.875 569.414062 602.546875 568.222656 602.246094 C 567.03125 601.949219 565.835938 601.679688 564.632812 601.441406 C 563.429688 601.203125 562.21875 600.992188 561.003906 600.8125 C 559.789062 600.632812 558.574219 600.480469 557.351562 600.359375 C 556.128906 600.242188 554.90625 600.152344 553.679688 600.089844 C 552.453125 600.03125 551.226562 600 550 600 Z M 550 700 C 549.179688 700 548.363281 699.960938 547.550781 699.878906 C 546.734375 699.800781 545.925781 699.679688 545.121094 699.519531 C 544.320312 699.359375 543.527344 699.160156 542.742188 698.921875 C 541.960938 698.6875 541.1875 698.410156 540.433594 698.097656 C 539.675781 697.785156 538.9375 697.433594 538.214844 697.046875 C 537.492188 696.660156 536.792969 696.242188 536.109375 695.785156 C 535.429688 695.332031 534.773438 694.84375 534.140625 694.324219 C 533.507812 693.804688 532.902344 693.257812 532.320312 692.675781 C 531.742188 692.097656 531.195312 691.492188 530.675781 690.859375 C 530.15625 690.226562 529.667969 689.570312 529.214844 688.890625 C 528.757812 688.207031 528.335938 687.507812 527.953125 686.785156 C 527.566406 686.0625 527.214844 685.324219 526.902344 684.566406 C 526.589844 683.808594 526.3125 683.039062 526.078125 682.257812 C 525.839844 681.472656 525.640625 680.679688 525.480469 679.878906 C 525.320312 679.074219 525.199219 678.265625 525.121094 677.449219 C 525.039062 676.636719 525 675.820312 525 675 C 525 674.179688 525.039062 673.363281 525.121094 672.550781 C 525.199219 671.734375 525.320312 670.925781 525.480469 670.121094 C 525.640625 669.320312 525.839844 668.527344 526.078125 667.742188 C 526.3125 666.960938 526.589844 666.1875 526.902344 665.433594 C 527.214844 664.675781 527.566406 663.9375 527.953125 663.214844 C 528.335938 662.492188 528.757812 661.792969 529.214844 661.109375 C 529.667969 660.429688 530.15625 659.773438 530.675781 659.140625 C 531.195312 658.507812 531.742188 657.902344 532.320312 657.320312 C 532.902344 656.742188 533.507812 656.195312 534.140625 655.675781 C 534.773438 655.15625 535.429688 654.667969 536.109375 654.214844 C 536.792969 653.757812 537.492188 653.339844 538.214844 652.953125 C 538.9375 652.566406 539.675781 652.214844 540.433594 651.902344 C 541.1875 651.589844 541.960938 651.3125 542.742188 651.078125 C 543.527344 650.839844 544.320312 650.640625 545.121094 650.480469 C 545.925781 650.320312 546.734375 650.199219 547.550781 650.121094 C 548.363281 650.039062 549.179688 650 550 650 C 550.820312 650 551.636719 650.039062 552.449219 650.121094 C 553.265625 650.199219 554.074219 650.320312 554.878906 650.480469 C 555.679688 650.640625 556.472656 650.839844 557.257812 651.078125 C 558.039062 651.3125 558.808594 651.589844 559.566406 651.902344 C 560.324219 652.214844 561.0625 652.566406 561.785156 652.953125 C 562.507812 653.339844 563.207031 653.757812 563.890625 654.214844 C 564.570312 654.667969 565.226562 655.15625 565.859375 655.675781 C 566.492188 656.195312 567.097656 656.742188 567.675781 657.320312 C 568.257812 657.902344 568.804688 658.507812 569.324219 659.140625 C 569.84375 659.773438 570.332031 660.429688 570.785156 661.109375 C 571.242188 661.792969 571.660156 662.492188 572.046875 663.214844 C 572.433594 663.9375 572.785156 664.675781 573.097656 665.433594 C 573.410156 666.1875 573.6875 666.960938 573.921875 667.742188 C 574.160156 668.527344 574.359375 669.320312 574.519531 670.121094 C 574.679688 670.925781 574.800781 671.734375 574.878906 672.550781 C 574.960938 673.363281 575 674.179688 575 675 C 575 675.820312 574.960938 676.636719 574.878906 677.449219 C 574.800781 678.265625 574.679688 679.074219 574.519531 679.878906 C 574.359375 680.679688 574.160156 681.472656 573.921875 682.257812 C 573.6875 683.039062 573.410156 683.808594 573.097656 684.566406 C 572.785156 685.324219 572.433594 686.0625 572.046875 686.785156 C 571.660156 687.507812 571.242188 688.207031 570.785156 688.890625 C 570.332031 689.570312 569.84375 690.226562 569.324219 690.859375 C 568.804688 691.492188 568.257812 692.097656 567.675781 692.675781 C 567.097656 693.257812 566.492188 693.804688 565.859375 694.324219 C 565.226562 694.84375 564.570312 695.332031 563.890625 695.785156 C 563.207031 696.242188 562.507812 696.660156 561.785156 697.046875 C 561.0625 697.433594 560.324219 697.785156 559.566406 698.097656 C 558.808594 698.410156 558.039062 698.6875 557.257812 698.921875 C 556.472656 699.160156 555.679688 699.359375 554.878906 699.519531 C 554.074219 699.679688 553.265625 699.800781 552.449219 699.878906 C 551.636719 699.960938 550.820312 700 550 700 Z M 550 700 " fill-opacity="1" fill-rule="nonzero"/></svg>